<?xml version="1.0" encoding="utf-8" standalone="no"?>
<!DOCTYPE svg PUBLIC "-//W3C//DTD SVG 1.1//EN"
  "http://www.w3.org/Graphics/SVG/1.1/DTD/svg11.dtd">
<svg xmlns:xlink="http://www.w3.org/1999/xlink" width="656.39952pt" height="332.39952pt" viewBox="0 0 656.39952 332.39952" xmlns="http://www.w3.org/2000/svg" version="1.1">
 <metadata>
  <rdf:RDF xmlns:dc="http://purl.org/dc/elements/1.1/" xmlns:cc="http://creativecommons.org/ns#" xmlns:rdf="http://www.w3.org/1999/02/22-rdf-syntax-ns#">
   <cc:Work>
    <dc:type rdf:resource="http://purl.org/dc/dcmitype/StillImage"/>
    <dc:date>2026-03-16T17:16:22.270995</dc:date>
    <dc:format>image/svg+xml</dc:format>
    <dc:creator>
     <cc:Agent>
      <dc:title>Matplotlib v3.10.8, https://matplotlib.org/</dc:title>
     </cc:Agent>
    </dc:creator>
   </cc:Work>
  </rdf:RDF>
 </metadata>
 <defs>
  <style type="text/css">*{stroke-linejoin: round; stroke-linecap: butt}</style>
 </defs>
 <g id="figure_1">
  <g id="patch_1">
   <path d="M 0 332.39952 
L 656.39952 332.39952 
L 656.39952 0 
L 0 0 
z
" style="fill: #ffffff"/>
  </g>
  <g id="axes_1">
   <g id="patch_2">
    <path d="M 46.949375 296.778895 
L 643.47327 296.778895 
L 643.47327 21.558281 
L 46.949375 21.558281 
z
" style="fill: #ffffff"/>
   </g>
   <g id="FillBetweenPolyCollection_1">
    <defs>
     <path id="m0e9baff3b2" d="M 58.879853 -35.620625 
L 58.879853 -49.830529 
L 70.810331 -49.830529 
L 70.810331 -100.67522 
L 94.671287 -100.67522 
L 94.671287 -162.363103 
L 118.532242 -162.363103 
L 118.532242 -221.896053 
L 142.393198 -221.896053 
L 142.393198 -268.378079 
L 166.254154 -268.378079 
L 166.254154 -293.957655 
L 190.11511 -293.957655 
L 190.11511 -295.416202 
L 213.976066 -295.416202 
L 213.976066 -274.712237 
L 237.837021 -274.712237 
L 237.837021 -238.028459 
L 261.697977 -238.028459 
L 261.697977 -193.653047 
L 285.558933 -193.653047 
L 285.558933 -149.541277 
L 309.419889 -149.541277 
L 309.419889 -111.458605 
L 333.280845 -111.458605 
L 333.280845 -82.226806 
L 357.1418 -82.226806 
L 357.1418 -62.042152 
L 381.002756 -62.042152 
L 381.002756 -49.424797 
L 404.863712 -49.424797 
L 404.863712 -42.259764 
L 428.724668 -42.259764 
L 428.724668 -38.556428 
L 452.585624 -38.556428 
L 452.585624 -36.812664 
L 476.446579 -36.812664 
L 476.446579 -36.064457 
L 500.307535 -36.064457 
L 500.307535 -35.771951 
L 524.168491 -35.771951 
L 524.168491 -35.667807 
L 548.029447 -35.667807 
L 548.029447 -35.634059 
L 571.890403 -35.634059 
L 571.890403 -35.624113 
L 595.751358 -35.624113 
L 595.751358 -35.62145 
L 619.612314 -35.62145 
L 619.612314 -35.620802 
L 631.542792 -35.620802 
L 631.542792 -35.620625 
L 631.542792 -35.620625 
L 619.612314 -35.620625 
L 619.612314 -35.620625 
L 595.751358 -35.620625 
L 595.751358 -35.620625 
L 571.890403 -35.620625 
L 571.890403 -35.620625 
L 548.029447 -35.620625 
L 548.029447 -35.620625 
L 524.168491 -35.620625 
L 524.168491 -35.620625 
L 500.307535 -35.620625 
L 500.307535 -35.620625 
L 476.446579 -35.620625 
L 476.446579 -35.620625 
L 452.585624 -35.620625 
L 452.585624 -35.620625 
L 428.724668 -35.620625 
L 428.724668 -35.620625 
L 404.863712 -35.620625 
L 404.863712 -35.620625 
L 381.002756 -35.620625 
L 381.002756 -35.620625 
L 357.1418 -35.620625 
L 357.1418 -35.620625 
L 333.280845 -35.620625 
L 333.280845 -35.620625 
L 309.419889 -35.620625 
L 309.419889 -35.620625 
L 285.558933 -35.620625 
L 285.558933 -35.620625 
L 261.697977 -35.620625 
L 261.697977 -35.620625 
L 237.837021 -35.620625 
L 237.837021 -35.620625 
L 213.976066 -35.620625 
L 213.976066 -35.620625 
L 190.11511 -35.620625 
L 190.11511 -35.620625 
L 166.254154 -35.620625 
L 166.254154 -35.620625 
L 142.393198 -35.620625 
L 142.393198 -35.620625 
L 118.532242 -35.620625 
L 118.532242 -35.620625 
L 94.671287 -35.620625 
L 94.671287 -35.620625 
L 70.810331 -35.620625 
L 70.810331 -35.620625 
L 58.879853 -35.620625 
z
"/>
    </defs>
    <g clip-path="url(#p7d65930084)">
     <use xlink:href="#m0e9baff3b2" x="0" y="332.39952" style="fill: #f4f6f8; fill-opacity: 0.25"/>
    </g>
   </g>
   <g id="matplotlib.axis_1">
    <g id="xtick_1">
     <g id="line2d_1">
      <defs>
       <path id="mc6a4fbfc93" d="M 0 0 
L 0 3.5 
" style="stroke: #1f2933; stroke-width: 0.8"/>
      </defs>
      <g>
       <use xlink:href="#mc6a4fbfc93" x="46.949375" y="296.778895" style="fill: #1f2933; stroke: #1f2933; stroke-width: 0.8"/>
      </g>
     </g>
     <g id="text_1">
      <!-- 0 -->
      <g style="fill: #1f2933" transform="translate(44.08625 310.617489) scale(0.09 -0.09)">
       <defs>
        <path id="DejaVuSans-30" d="M 2034 4250 
Q 1547 4250 1301 3770 
Q 1056 3291 1056 2328 
Q 1056 1369 1301 889 
Q 1547 409 2034 409 
Q 2525 409 2770 889 
Q 3016 1369 3016 2328 
Q 3016 3291 2770 3770 
Q 2525 4250 2034 4250 
z
M 2034 4750 
Q 2819 4750 3233 4129 
Q 3647 3509 3647 2328 
Q 3647 1150 3233 529 
Q 2819 -91 2034 -91 
Q 1250 -91 836 529 
Q 422 1150 422 2328 
Q 422 3509 836 4129 
Q 1250 4750 2034 4750 
z
" transform="scale(0.015625)"/>
       </defs>
       <use xlink:href="#DejaVuSans-30"/>
      </g>
     </g>
    </g>
    <g id="xtick_2">
     <g id="line2d_2">
      <g>
       <use xlink:href="#mc6a4fbfc93" x="166.254154" y="296.778895" style="fill: #1f2933; stroke: #1f2933; stroke-width: 0.8"/>
      </g>
     </g>
     <g id="text_2">
      <!-- 5 -->
      <g style="fill: #1f2933" transform="translate(163.391029 310.617489) scale(0.09 -0.09)">
       <defs>
        <path id="DejaVuSans-35" d="M 691 4666 
L 3169 4666 
L 3169 4134 
L 1269 4134 
L 1269 2991 
Q 1406 3038 1543 3061 
Q 1681 3084 1819 3084 
Q 2600 3084 3056 2656 
Q 3513 2228 3513 1497 
Q 3513 744 3044 326 
Q 2575 -91 1722 -91 
Q 1428 -91 1123 -41 
Q 819 9 494 109 
L 494 744 
Q 775 591 1075 516 
Q 1375 441 1709 441 
Q 2250 441 2565 725 
Q 2881 1009 2881 1497 
Q 2881 1984 2565 2268 
Q 2250 2553 1709 2553 
Q 1456 2553 1204 2497 
Q 953 2441 691 2322 
L 691 4666 
z
" transform="scale(0.015625)"/>
       </defs>
       <use xlink:href="#DejaVuSans-35"/>
      </g>
     </g>
    </g>
    <g id="xtick_3">
     <g id="line2d_3">
      <g>
       <use xlink:href="#mc6a4fbfc93" x="285.558933" y="296.778895" style="fill: #1f2933; stroke: #1f2933; stroke-width: 0.8"/>
      </g>
     </g>
     <g id="text_3">
      <!-- 10 -->
      <g style="fill: #1f2933" transform="translate(279.832683 310.617489) scale(0.09 -0.09)">
       <defs>
        <path id="DejaVuSans-31" d="M 794 531 
L 1825 531 
L 1825 4091 
L 703 3866 
L 703 4441 
L 1819 4666 
L 2450 4666 
L 2450 531 
L 3481 531 
L 3481 0 
L 794 0 
L 794 531 
z
" transform="scale(0.015625)"/>
       </defs>
       <use xlink:href="#DejaVuSans-31"/>
       <use xlink:href="#DejaVuSans-30" transform="translate(63.623047 0)"/>
      </g>
     </g>
    </g>
    <g id="xtick_4">
     <g id="line2d_4">
      <g>
       <use xlink:href="#mc6a4fbfc93" x="404.863712" y="296.778895" style="fill: #1f2933; stroke: #1f2933; stroke-width: 0.8"/>
      </g>
     </g>
     <g id="text_4">
      <!-- 15 -->
      <g style="fill: #1f2933" transform="translate(399.137462 310.617489) scale(0.09 -0.09)">
       <use xlink:href="#DejaVuSans-31"/>
       <use xlink:href="#DejaVuSans-35" transform="translate(63.623047 0)"/>
      </g>
     </g>
    </g>
    <g id="xtick_5">
     <g id="line2d_5">
      <g>
       <use xlink:href="#mc6a4fbfc93" x="524.168491" y="296.778895" style="fill: #1f2933; stroke: #1f2933; stroke-width: 0.8"/>
      </g>
     </g>
     <g id="text_5">
      <!-- 20 -->
      <g style="fill: #1f2933" transform="translate(518.442241 310.617489) scale(0.09 -0.09)">
       <defs>
        <path id="DejaVuSans-32" d="M 1228 531 
L 3431 531 
L 3431 0 
L 469 0 
L 469 531 
Q 828 903 1448 1529 
Q 2069 2156 2228 2338 
Q 2531 2678 2651 2914 
Q 2772 3150 2772 3378 
Q 2772 3750 2511 3984 
Q 2250 4219 1831 4219 
Q 1534 4219 1204 4116 
Q 875 4013 500 3803 
L 500 4441 
Q 881 4594 1212 4672 
Q 1544 4750 1819 4750 
Q 2544 4750 2975 4387 
Q 3406 4025 3406 3419 
Q 3406 3131 3298 2873 
Q 3191 2616 2906 2266 
Q 2828 2175 2409 1742 
Q 1991 1309 1228 531 
z
" transform="scale(0.015625)"/>
       </defs>
       <use xlink:href="#DejaVuSans-32"/>
       <use xlink:href="#DejaVuSans-30" transform="translate(63.623047 0)"/>
      </g>
     </g>
    </g>
    <g id="xtick_6">
     <g id="line2d_6">
      <g>
       <use xlink:href="#mc6a4fbfc93" x="643.47327" y="296.778895" style="fill: #1f2933; stroke: #1f2933; stroke-width: 0.8"/>
      </g>
     </g>
     <g id="text_6">
      <!-- 25 -->
      <g style="fill: #1f2933" transform="translate(637.74702 310.617489) scale(0.09 -0.09)">
       <use xlink:href="#DejaVuSans-32"/>
       <use xlink:href="#DejaVuSans-35" transform="translate(63.623047 0)"/>
      </g>
     </g>
    </g>
    <g id="text_7">
     <!-- Wind speed (m/s) -->
     <g style="fill: #1f2933" transform="translate(305.693588 323.327801) scale(0.09 -0.09)">
      <defs>
       <path id="DejaVuSans-57" d="M 213 4666 
L 850 4666 
L 1831 722 
L 2809 4666 
L 3519 4666 
L 4500 722 
L 5478 4666 
L 6119 4666 
L 4947 0 
L 4153 0 
L 3169 4050 
L 2175 0 
L 1381 0 
L 213 4666 
z
" transform="scale(0.015625)"/>
       <path id="DejaVuSans-69" d="M 603 3500 
L 1178 3500 
L 1178 0 
L 603 0 
L 603 3500 
z
M 603 4863 
L 1178 4863 
L 1178 4134 
L 603 4134 
L 603 4863 
z
" transform="scale(0.015625)"/>
       <path id="DejaVuSans-6e" d="M 3513 2113 
L 3513 0 
L 2938 0 
L 2938 2094 
Q 2938 2591 2744 2837 
Q 2550 3084 2163 3084 
Q 1697 3084 1428 2787 
Q 1159 2491 1159 1978 
L 1159 0 
L 581 0 
L 581 3500 
L 1159 3500 
L 1159 2956 
Q 1366 3272 1645 3428 
Q 1925 3584 2291 3584 
Q 2894 3584 3203 3211 
Q 3513 2838 3513 2113 
z
" transform="scale(0.015625)"/>
       <path id="DejaVuSans-64" d="M 2906 2969 
L 2906 4863 
L 3481 4863 
L 3481 0 
L 2906 0 
L 2906 525 
Q 2725 213 2448 61 
Q 2172 -91 1784 -91 
Q 1150 -91 751 415 
Q 353 922 353 1747 
Q 353 2572 751 3078 
Q 1150 3584 1784 3584 
Q 2172 3584 2448 3432 
Q 2725 3281 2906 2969 
z
M 947 1747 
Q 947 1113 1208 752 
Q 1469 391 1925 391 
Q 2381 391 2643 752 
Q 2906 1113 2906 1747 
Q 2906 2381 2643 2742 
Q 2381 3103 1925 3103 
Q 1469 3103 1208 2742 
Q 947 2381 947 1747 
z
" transform="scale(0.015625)"/>
       <path id="DejaVuSans-20" transform="scale(0.015625)"/>
       <path id="DejaVuSans-73" d="M 2834 3397 
L 2834 2853 
Q 2591 2978 2328 3040 
Q 2066 3103 1784 3103 
Q 1356 3103 1142 2972 
Q 928 2841 928 2578 
Q 928 2378 1081 2264 
Q 1234 2150 1697 2047 
L 1894 2003 
Q 2506 1872 2764 1633 
Q 3022 1394 3022 966 
Q 3022 478 2636 193 
Q 2250 -91 1575 -91 
Q 1294 -91 989 -36 
Q 684 19 347 128 
L 347 722 
Q 666 556 975 473 
Q 1284 391 1588 391 
Q 1994 391 2212 530 
Q 2431 669 2431 922 
Q 2431 1156 2273 1281 
Q 2116 1406 1581 1522 
L 1381 1569 
Q 847 1681 609 1914 
Q 372 2147 372 2553 
Q 372 3047 722 3315 
Q 1072 3584 1716 3584 
Q 2034 3584 2315 3537 
Q 2597 3491 2834 3397 
z
" transform="scale(0.015625)"/>
       <path id="DejaVuSans-70" d="M 1159 525 
L 1159 -1331 
L 581 -1331 
L 581 3500 
L 1159 3500 
L 1159 2969 
Q 1341 3281 1617 3432 
Q 1894 3584 2278 3584 
Q 2916 3584 3314 3078 
Q 3713 2572 3713 1747 
Q 3713 922 3314 415 
Q 2916 -91 2278 -91 
Q 1894 -91 1617 61 
Q 1341 213 1159 525 
z
M 3116 1747 
Q 3116 2381 2855 2742 
Q 2594 3103 2138 3103 
Q 1681 3103 1420 2742 
Q 1159 2381 1159 1747 
Q 1159 1113 1420 752 
Q 1681 391 2138 391 
Q 2594 391 2855 752 
Q 3116 1113 3116 1747 
z
" transform="scale(0.015625)"/>
       <path id="DejaVuSans-65" d="M 3597 1894 
L 3597 1613 
L 953 1613 
Q 991 1019 1311 708 
Q 1631 397 2203 397 
Q 2534 397 2845 478 
Q 3156 559 3463 722 
L 3463 178 
Q 3153 47 2828 -22 
Q 2503 -91 2169 -91 
Q 1331 -91 842 396 
Q 353 884 353 1716 
Q 353 2575 817 3079 
Q 1281 3584 2069 3584 
Q 2775 3584 3186 3129 
Q 3597 2675 3597 1894 
z
M 3022 2063 
Q 3016 2534 2758 2815 
Q 2500 3097 2075 3097 
Q 1594 3097 1305 2825 
Q 1016 2553 972 2059 
L 3022 2063 
z
" transform="scale(0.015625)"/>
       <path id="DejaVuSans-28" d="M 1984 4856 
Q 1566 4138 1362 3434 
Q 1159 2731 1159 2009 
Q 1159 1288 1364 580 
Q 1569 -128 1984 -844 
L 1484 -844 
Q 1016 -109 783 600 
Q 550 1309 550 2009 
Q 550 2706 781 3412 
Q 1013 4119 1484 4856 
L 1984 4856 
z
" transform="scale(0.015625)"/>
       <path id="DejaVuSans-6d" d="M 3328 2828 
Q 3544 3216 3844 3400 
Q 4144 3584 4550 3584 
Q 5097 3584 5394 3201 
Q 5691 2819 5691 2113 
L 5691 0 
L 5113 0 
L 5113 2094 
Q 5113 2597 4934 2840 
Q 4756 3084 4391 3084 
Q 3944 3084 3684 2787 
Q 3425 2491 3425 1978 
L 3425 0 
L 2847 0 
L 2847 2094 
Q 2847 2600 2669 2842 
Q 2491 3084 2119 3084 
Q 1678 3084 1418 2786 
Q 1159 2488 1159 1978 
L 1159 0 
L 581 0 
L 581 3500 
L 1159 3500 
L 1159 2956 
Q 1356 3278 1631 3431 
Q 1906 3584 2284 3584 
Q 2666 3584 2933 3390 
Q 3200 3197 3328 2828 
z
" transform="scale(0.015625)"/>
       <path id="DejaVuSans-2f" d="M 1625 4666 
L 2156 4666 
L 531 -594 
L 0 -594 
L 1625 4666 
z
" transform="scale(0.015625)"/>
       <path id="DejaVuSans-29" d="M 513 4856 
L 1013 4856 
Q 1481 4119 1714 3412 
Q 1947 2706 1947 2009 
Q 1947 1309 1714 600 
Q 1481 -109 1013 -844 
L 513 -844 
Q 928 -128 1133 580 
Q 1338 1288 1338 2009 
Q 1338 2731 1133 3434 
Q 928 4138 513 4856 
z
" transform="scale(0.015625)"/>
      </defs>
      <use xlink:href="#DejaVuSans-57"/>
      <use xlink:href="#DejaVuSans-69" transform="translate(96.626953 0)"/>
      <use xlink:href="#DejaVuSans-6e" transform="translate(124.410156 0)"/>
      <use xlink:href="#DejaVuSans-64" transform="translate(187.789062 0)"/>
      <use xlink:href="#DejaVuSans-20" transform="translate(251.265625 0)"/>
      <use xlink:href="#DejaVuSans-73" transform="translate(283.052734 0)"/>
      <use xlink:href="#DejaVuSans-70" transform="translate(335.152344 0)"/>
      <use xlink:href="#DejaVuSans-65" transform="translate(398.628906 0)"/>
      <use xlink:href="#DejaVuSans-65" transform="translate(460.152344 0)"/>
      <use xlink:href="#DejaVuSans-64" transform="translate(521.675781 0)"/>
      <use xlink:href="#DejaVuSans-20" transform="translate(585.152344 0)"/>
      <use xlink:href="#DejaVuSans-28" transform="translate(616.939453 0)"/>
      <use xlink:href="#DejaVuSans-6d" transform="translate(655.953125 0)"/>
      <use xlink:href="#DejaVuSans-2f" transform="translate(753.365234 0)"/>
      <use xlink:href="#DejaVuSans-73" transform="translate(787.056641 0)"/>
      <use xlink:href="#DejaVuSans-29" transform="translate(839.15625 0)"/>
     </g>
    </g>
   </g>
   <g id="matplotlib.axis_2">
    <g id="ytick_1">
     <g id="line2d_7">
      <path d="M 46.949375 296.778895 
L 643.47327 296.778895 
" clip-path="url(#p7d65930084)" style="fill: none; stroke: #d9e0e6; stroke-opacity: 0.45; stroke-width: 0.8; stroke-linecap: square"/>
     </g>
     <g id="line2d_8">
      <defs>
       <path id="m9097caafd8" d="M 0 0 
L -3.5 0 
" style="stroke: #1f2933; stroke-width: 0.8"/>
      </defs>
      <g>
       <use xlink:href="#m9097caafd8" x="46.949375" y="296.778895" style="fill: #1f2933; stroke: #1f2933; stroke-width: 0.8"/>
      </g>
     </g>
     <g id="text_8">
      <!-- 0.00 -->
      <g style="fill: #1f2933" transform="translate(19.910313 300.198192) scale(0.09 -0.09)">
       <defs>
        <path id="DejaVuSans-2e" d="M 684 794 
L 1344 794 
L 1344 0 
L 684 0 
L 684 794 
z
" transform="scale(0.015625)"/>
       </defs>
       <use xlink:href="#DejaVuSans-30"/>
       <use xlink:href="#DejaVuSans-2e" transform="translate(63.623047 0)"/>
       <use xlink:href="#DejaVuSans-30" transform="translate(95.410156 0)"/>
       <use xlink:href="#DejaVuSans-30" transform="translate(159.033203 0)"/>
      </g>
     </g>
    </g>
    <g id="ytick_2">
     <g id="line2d_9">
      <path d="M 46.949375 256.180164 
L 643.47327 256.180164 
" clip-path="url(#p7d65930084)" style="fill: none; stroke: #d9e0e6; stroke-opacity: 0.45; stroke-width: 0.8; stroke-linecap: square"/>
     </g>
     <g id="line2d_10">
      <g>
       <use xlink:href="#m9097caafd8" x="46.949375" y="256.180164" style="fill: #1f2933; stroke: #1f2933; stroke-width: 0.8"/>
      </g>
     </g>
     <g id="text_9">
      <!-- 0.02 -->
      <g style="fill: #1f2933" transform="translate(19.910313 259.599461) scale(0.09 -0.09)">
       <use xlink:href="#DejaVuSans-30"/>
       <use xlink:href="#DejaVuSans-2e" transform="translate(63.623047 0)"/>
       <use xlink:href="#DejaVuSans-30" transform="translate(95.410156 0)"/>
       <use xlink:href="#DejaVuSans-32" transform="translate(159.033203 0)"/>
      </g>
     </g>
    </g>
    <g id="ytick_3">
     <g id="line2d_11">
      <path d="M 46.949375 215.581432 
L 643.47327 215.581432 
" clip-path="url(#p7d65930084)" style="fill: none; stroke: #d9e0e6; stroke-opacity: 0.45; stroke-width: 0.8; stroke-linecap: square"/>
     </g>
     <g id="line2d_12">
      <g>
       <use xlink:href="#m9097caafd8" x="46.949375" y="215.581432" style="fill: #1f2933; stroke: #1f2933; stroke-width: 0.8"/>
      </g>
     </g>
     <g id="text_10">
      <!-- 0.04 -->
      <g style="fill: #1f2933" transform="translate(19.910313 219.000729) scale(0.09 -0.09)">
       <defs>
        <path id="DejaVuSans-34" d="M 2419 4116 
L 825 1625 
L 2419 1625 
L 2419 4116 
z
M 2253 4666 
L 3047 4666 
L 3047 1625 
L 3713 1625 
L 3713 1100 
L 3047 1100 
L 3047 0 
L 2419 0 
L 2419 1100 
L 313 1100 
L 313 1709 
L 2253 4666 
z
" transform="scale(0.015625)"/>
       </defs>
       <use xlink:href="#DejaVuSans-30"/>
       <use xlink:href="#DejaVuSans-2e" transform="translate(63.623047 0)"/>
       <use xlink:href="#DejaVuSans-30" transform="translate(95.410156 0)"/>
       <use xlink:href="#DejaVuSans-34" transform="translate(159.033203 0)"/>
      </g>
     </g>
    </g>
    <g id="ytick_4">
     <g id="line2d_13">
      <path d="M 46.949375 174.982701 
L 643.47327 174.982701 
" clip-path="url(#p7d65930084)" style="fill: none; stroke: #d9e0e6; stroke-opacity: 0.45; stroke-width: 0.8; stroke-linecap: square"/>
     </g>
     <g id="line2d_14">
      <g>
       <use xlink:href="#m9097caafd8" x="46.949375" y="174.982701" style="fill: #1f2933; stroke: #1f2933; stroke-width: 0.8"/>
      </g>
     </g>
     <g id="text_11">
      <!-- 0.06 -->
      <g style="fill: #1f2933" transform="translate(19.910313 178.401998) scale(0.09 -0.09)">
       <defs>
        <path id="DejaVuSans-36" d="M 2113 2584 
Q 1688 2584 1439 2293 
Q 1191 2003 1191 1497 
Q 1191 994 1439 701 
Q 1688 409 2113 409 
Q 2538 409 2786 701 
Q 3034 994 3034 1497 
Q 3034 2003 2786 2293 
Q 2538 2584 2113 2584 
z
M 3366 4563 
L 3366 3988 
Q 3128 4100 2886 4159 
Q 2644 4219 2406 4219 
Q 1781 4219 1451 3797 
Q 1122 3375 1075 2522 
Q 1259 2794 1537 2939 
Q 1816 3084 2150 3084 
Q 2853 3084 3261 2657 
Q 3669 2231 3669 1497 
Q 3669 778 3244 343 
Q 2819 -91 2113 -91 
Q 1303 -91 875 529 
Q 447 1150 447 2328 
Q 447 3434 972 4092 
Q 1497 4750 2381 4750 
Q 2619 4750 2861 4703 
Q 3103 4656 3366 4563 
z
" transform="scale(0.015625)"/>
       </defs>
       <use xlink:href="#DejaVuSans-30"/>
       <use xlink:href="#DejaVuSans-2e" transform="translate(63.623047 0)"/>
       <use xlink:href="#DejaVuSans-30" transform="translate(95.410156 0)"/>
       <use xlink:href="#DejaVuSans-36" transform="translate(159.033203 0)"/>
      </g>
     </g>
    </g>
    <g id="ytick_5">
     <g id="line2d_15">
      <path d="M 46.949375 134.38397 
L 643.47327 134.38397 
" clip-path="url(#p7d65930084)" style="fill: none; stroke: #d9e0e6; stroke-opacity: 0.45; stroke-width: 0.8; stroke-linecap: square"/>
     </g>
     <g id="line2d_16">
      <g>
       <use xlink:href="#m9097caafd8" x="46.949375" y="134.38397" style="fill: #1f2933; stroke: #1f2933; stroke-width: 0.8"/>
      </g>
     </g>
     <g id="text_12">
      <!-- 0.08 -->
      <g style="fill: #1f2933" transform="translate(19.910313 137.803267) scale(0.09 -0.09)">
       <defs>
        <path id="DejaVuSans-38" d="M 2034 2216 
Q 1584 2216 1326 1975 
Q 1069 1734 1069 1313 
Q 1069 891 1326 650 
Q 1584 409 2034 409 
Q 2484 409 2743 651 
Q 3003 894 3003 1313 
Q 3003 1734 2745 1975 
Q 2488 2216 2034 2216 
z
M 1403 2484 
Q 997 2584 770 2862 
Q 544 3141 544 3541 
Q 544 4100 942 4425 
Q 1341 4750 2034 4750 
Q 2731 4750 3128 4425 
Q 3525 4100 3525 3541 
Q 3525 3141 3298 2862 
Q 3072 2584 2669 2484 
Q 3125 2378 3379 2068 
Q 3634 1759 3634 1313 
Q 3634 634 3220 271 
Q 2806 -91 2034 -91 
Q 1263 -91 848 271 
Q 434 634 434 1313 
Q 434 1759 690 2068 
Q 947 2378 1403 2484 
z
M 1172 3481 
Q 1172 3119 1398 2916 
Q 1625 2713 2034 2713 
Q 2441 2713 2670 2916 
Q 2900 3119 2900 3481 
Q 2900 3844 2670 4047 
Q 2441 4250 2034 4250 
Q 1625 4250 1398 4047 
Q 1172 3844 1172 3481 
z
" transform="scale(0.015625)"/>
       </defs>
       <use xlink:href="#DejaVuSans-30"/>
       <use xlink:href="#DejaVuSans-2e" transform="translate(63.623047 0)"/>
       <use xlink:href="#DejaVuSans-30" transform="translate(95.410156 0)"/>
       <use xlink:href="#DejaVuSans-38" transform="translate(159.033203 0)"/>
      </g>
     </g>
    </g>
    <g id="ytick_6">
     <g id="line2d_17">
      <path d="M 46.949375 93.785238 
L 643.47327 93.785238 
" clip-path="url(#p7d65930084)" style="fill: none; stroke: #d9e0e6; stroke-opacity: 0.45; stroke-width: 0.8; stroke-linecap: square"/>
     </g>
     <g id="line2d_18">
      <g>
       <use xlink:href="#m9097caafd8" x="46.949375" y="93.785238" style="fill: #1f2933; stroke: #1f2933; stroke-width: 0.8"/>
      </g>
     </g>
     <g id="text_13">
      <!-- 0.10 -->
      <g style="fill: #1f2933" transform="translate(19.910313 97.204535) scale(0.09 -0.09)">
       <use xlink:href="#DejaVuSans-30"/>
       <use xlink:href="#DejaVuSans-2e" transform="translate(63.623047 0)"/>
       <use xlink:href="#DejaVuSans-31" transform="translate(95.410156 0)"/>
       <use xlink:href="#DejaVuSans-30" transform="translate(159.033203 0)"/>
      </g>
     </g>
    </g>
    <g id="ytick_7">
     <g id="line2d_19">
      <path d="M 46.949375 53.186507 
L 643.47327 53.186507 
" clip-path="url(#p7d65930084)" style="fill: none; stroke: #d9e0e6; stroke-opacity: 0.45; stroke-width: 0.8; stroke-linecap: square"/>
     </g>
     <g id="line2d_20">
      <g>
       <use xlink:href="#m9097caafd8" x="46.949375" y="53.186507" style="fill: #1f2933; stroke: #1f2933; stroke-width: 0.8"/>
      </g>
     </g>
     <g id="text_14">
      <!-- 0.12 -->
      <g style="fill: #1f2933" transform="translate(19.910313 56.605804) scale(0.09 -0.09)">
       <use xlink:href="#DejaVuSans-30"/>
       <use xlink:href="#DejaVuSans-2e" transform="translate(63.623047 0)"/>
       <use xlink:href="#DejaVuSans-31" transform="translate(95.410156 0)"/>
       <use xlink:href="#DejaVuSans-32" transform="translate(159.033203 0)"/>
      </g>
     </g>
    </g>
    <g id="text_15">
     <!-- Frequency (probability density) -->
     <g style="fill: #1f2933" transform="translate(14.038594 229.29476) rotate(-90) scale(0.09 -0.09)">
      <defs>
       <path id="DejaVuSans-46" d="M 628 4666 
L 3309 4666 
L 3309 4134 
L 1259 4134 
L 1259 2759 
L 3109 2759 
L 3109 2228 
L 1259 2228 
L 1259 0 
L 628 0 
L 628 4666 
z
" transform="scale(0.015625)"/>
       <path id="DejaVuSans-72" d="M 2631 2963 
Q 2534 3019 2420 3045 
Q 2306 3072 2169 3072 
Q 1681 3072 1420 2755 
Q 1159 2438 1159 1844 
L 1159 0 
L 581 0 
L 581 3500 
L 1159 3500 
L 1159 2956 
Q 1341 3275 1631 3429 
Q 1922 3584 2338 3584 
Q 2397 3584 2469 3576 
Q 2541 3569 2628 3553 
L 2631 2963 
z
" transform="scale(0.015625)"/>
       <path id="DejaVuSans-71" d="M 947 1747 
Q 947 1113 1208 752 
Q 1469 391 1925 391 
Q 2381 391 2643 752 
Q 2906 1113 2906 1747 
Q 2906 2381 2643 2742 
Q 2381 3103 1925 3103 
Q 1469 3103 1208 2742 
Q 947 2381 947 1747 
z
M 2906 525 
Q 2725 213 2448 61 
Q 2172 -91 1784 -91 
Q 1150 -91 751 415 
Q 353 922 353 1747 
Q 353 2572 751 3078 
Q 1150 3584 1784 3584 
Q 2172 3584 2448 3432 
Q 2725 3281 2906 2969 
L 2906 3500 
L 3481 3500 
L 3481 -1331 
L 2906 -1331 
L 2906 525 
z
" transform="scale(0.015625)"/>
       <path id="DejaVuSans-75" d="M 544 1381 
L 544 3500 
L 1119 3500 
L 1119 1403 
Q 1119 906 1312 657 
Q 1506 409 1894 409 
Q 2359 409 2629 706 
Q 2900 1003 2900 1516 
L 2900 3500 
L 3475 3500 
L 3475 0 
L 2900 0 
L 2900 538 
Q 2691 219 2414 64 
Q 2138 -91 1772 -91 
Q 1169 -91 856 284 
Q 544 659 544 1381 
z
M 1991 3584 
L 1991 3584 
z
" transform="scale(0.015625)"/>
       <path id="DejaVuSans-63" d="M 3122 3366 
L 3122 2828 
Q 2878 2963 2633 3030 
Q 2388 3097 2138 3097 
Q 1578 3097 1268 2742 
Q 959 2388 959 1747 
Q 959 1106 1268 751 
Q 1578 397 2138 397 
Q 2388 397 2633 464 
Q 2878 531 3122 666 
L 3122 134 
Q 2881 22 2623 -34 
Q 2366 -91 2075 -91 
Q 1284 -91 818 406 
Q 353 903 353 1747 
Q 353 2603 823 3093 
Q 1294 3584 2113 3584 
Q 2378 3584 2631 3529 
Q 2884 3475 3122 3366 
z
" transform="scale(0.015625)"/>
       <path id="DejaVuSans-79" d="M 2059 -325 
Q 1816 -950 1584 -1140 
Q 1353 -1331 966 -1331 
L 506 -1331 
L 506 -850 
L 844 -850 
Q 1081 -850 1212 -737 
Q 1344 -625 1503 -206 
L 1606 56 
L 191 3500 
L 800 3500 
L 1894 763 
L 2988 3500 
L 3597 3500 
L 2059 -325 
z
" transform="scale(0.015625)"/>
       <path id="DejaVuSans-6f" d="M 1959 3097 
Q 1497 3097 1228 2736 
Q 959 2375 959 1747 
Q 959 1119 1226 758 
Q 1494 397 1959 397 
Q 2419 397 2687 759 
Q 2956 1122 2956 1747 
Q 2956 2369 2687 2733 
Q 2419 3097 1959 3097 
z
M 1959 3584 
Q 2709 3584 3137 3096 
Q 3566 2609 3566 1747 
Q 3566 888 3137 398 
Q 2709 -91 1959 -91 
Q 1206 -91 779 398 
Q 353 888 353 1747 
Q 353 2609 779 3096 
Q 1206 3584 1959 3584 
z
" transform="scale(0.015625)"/>
       <path id="DejaVuSans-62" d="M 3116 1747 
Q 3116 2381 2855 2742 
Q 2594 3103 2138 3103 
Q 1681 3103 1420 2742 
Q 1159 2381 1159 1747 
Q 1159 1113 1420 752 
Q 1681 391 2138 391 
Q 2594 391 2855 752 
Q 3116 1113 3116 1747 
z
M 1159 2969 
Q 1341 3281 1617 3432 
Q 1894 3584 2278 3584 
Q 2916 3584 3314 3078 
Q 3713 2572 3713 1747 
Q 3713 922 3314 415 
Q 2916 -91 2278 -91 
Q 1894 -91 1617 61 
Q 1341 213 1159 525 
L 1159 0 
L 581 0 
L 581 4863 
L 1159 4863 
L 1159 2969 
z
" transform="scale(0.015625)"/>
       <path id="DejaVuSans-61" d="M 2194 1759 
Q 1497 1759 1228 1600 
Q 959 1441 959 1056 
Q 959 750 1161 570 
Q 1363 391 1709 391 
Q 2188 391 2477 730 
Q 2766 1069 2766 1631 
L 2766 1759 
L 2194 1759 
z
M 3341 1997 
L 3341 0 
L 2766 0 
L 2766 531 
Q 2569 213 2275 61 
Q 1981 -91 1556 -91 
Q 1019 -91 701 211 
Q 384 513 384 1019 
Q 384 1609 779 1909 
Q 1175 2209 1959 2209 
L 2766 2209 
L 2766 2266 
Q 2766 2663 2505 2880 
Q 2244 3097 1772 3097 
Q 1472 3097 1187 3025 
Q 903 2953 641 2809 
L 641 3341 
Q 956 3463 1253 3523 
Q 1550 3584 1831 3584 
Q 2591 3584 2966 3190 
Q 3341 2797 3341 1997 
z
" transform="scale(0.015625)"/>
       <path id="DejaVuSans-6c" d="M 603 4863 
L 1178 4863 
L 1178 0 
L 603 0 
L 603 4863 
z
" transform="scale(0.015625)"/>
       <path id="DejaVuSans-74" d="M 1172 4494 
L 1172 3500 
L 2356 3500 
L 2356 3053 
L 1172 3053 
L 1172 1153 
Q 1172 725 1289 603 
Q 1406 481 1766 481 
L 2356 481 
L 2356 0 
L 1766 0 
Q 1100 0 847 248 
Q 594 497 594 1153 
L 594 3053 
L 172 3053 
L 172 3500 
L 594 3500 
L 594 4494 
L 1172 4494 
z
" transform="scale(0.015625)"/>
      </defs>
      <use xlink:href="#DejaVuSans-46"/>
      <use xlink:href="#DejaVuSans-72" transform="translate(50.269531 0)"/>
      <use xlink:href="#DejaVuSans-65" transform="translate(89.132812 0)"/>
      <use xlink:href="#DejaVuSans-71" transform="translate(150.65625 0)"/>
      <use xlink:href="#DejaVuSans-75" transform="translate(214.132812 0)"/>
      <use xlink:href="#DejaVuSans-65" transform="translate(277.511719 0)"/>
      <use xlink:href="#DejaVuSans-6e" transform="translate(339.035156 0)"/>
      <use xlink:href="#DejaVuSans-63" transform="translate(402.414062 0)"/>
      <use xlink:href="#DejaVuSans-79" transform="translate(457.394531 0)"/>
      <use xlink:href="#DejaVuSans-20" transform="translate(516.574219 0)"/>
      <use xlink:href="#DejaVuSans-28" transform="translate(548.361328 0)"/>
      <use xlink:href="#DejaVuSans-70" transform="translate(587.375 0)"/>
      <use xlink:href="#DejaVuSans-72" transform="translate(650.851562 0)"/>
      <use xlink:href="#DejaVuSans-6f" transform="translate(689.714844 0)"/>
      <use xlink:href="#DejaVuSans-62" transform="translate(750.896484 0)"/>
      <use xlink:href="#DejaVuSans-61" transform="translate(814.373047 0)"/>
      <use xlink:href="#DejaVuSans-62" transform="translate(875.652344 0)"/>
      <use xlink:href="#DejaVuSans-69" transform="translate(939.128906 0)"/>
      <use xlink:href="#DejaVuSans-6c" transform="translate(966.912109 0)"/>
      <use xlink:href="#DejaVuSans-69" transform="translate(994.695312 0)"/>
      <use xlink:href="#DejaVuSans-74" transform="translate(1022.478516 0)"/>
      <use xlink:href="#DejaVuSans-79" transform="translate(1061.6875 0)"/>
      <use xlink:href="#DejaVuSans-20" transform="translate(1120.867188 0)"/>
      <use xlink:href="#DejaVuSans-64" transform="translate(1152.654297 0)"/>
      <use xlink:href="#DejaVuSans-65" transform="translate(1216.130859 0)"/>
      <use xlink:href="#DejaVuSans-6e" transform="translate(1277.654297 0)"/>
      <use xlink:href="#DejaVuSans-73" transform="translate(1341.033203 0)"/>
      <use xlink:href="#DejaVuSans-69" transform="translate(1393.132812 0)"/>
      <use xlink:href="#DejaVuSans-74" transform="translate(1420.916016 0)"/>
      <use xlink:href="#DejaVuSans-79" transform="translate(1460.125 0)"/>
      <use xlink:href="#DejaVuSans-29" transform="translate(1519.304688 0)"/>
     </g>
    </g>
   </g>
   <g id="line2d_21">
    <path d="M 58.879853 282.568991 
L 70.810331 282.568991 
L 70.810331 231.7243 
L 94.671287 231.7243 
L 94.671287 170.036417 
L 118.532242 170.036417 
L 118.532242 110.503467 
L 142.393198 110.503467 
L 142.393198 64.021441 
L 166.254154 64.021441 
L 166.254154 38.441865 
L 190.11511 38.441865 
L 190.11511 36.983318 
L 213.976066 36.983318 
L 213.976066 57.687283 
L 237.837021 57.687283 
L 237.837021 94.371061 
L 261.697977 94.371061 
L 261.697977 138.746473 
L 285.558933 138.746473 
L 285.558933 182.858243 
L 309.419889 182.858243 
L 309.419889 220.940915 
L 333.280845 220.940915 
L 333.280845 250.172714 
L 357.1418 250.172714 
L 357.1418 270.357368 
L 381.002756 270.357368 
L 381.002756 282.974723 
L 404.863712 282.974723 
L 404.863712 290.139756 
L 428.724668 290.139756 
L 428.724668 293.843092 
L 452.585624 293.843092 
L 452.585624 295.586856 
L 476.446579 295.586856 
L 476.446579 296.335063 
L 500.307535 296.335063 
L 500.307535 296.627569 
L 524.168491 296.627569 
L 524.168491 296.731713 
L 548.029447 296.731713 
L 548.029447 296.765461 
L 571.890403 296.765461 
L 571.890403 296.775407 
L 595.751358 296.775407 
L 595.751358 296.77807 
L 619.612314 296.77807 
L 619.612314 296.778718 
L 631.542792 296.778718 
" clip-path="url(#p7d65930084)" style="fill: none; stroke: #d9e0e6; stroke-width: 0.8; stroke-linecap: square"/>
   </g>
   <g id="line2d_22">
    <path d="M 48.142423 296.214969 
L 49.335471 295.288657 
L 50.528518 294.147938 
L 52.914614 291.395442 
L 55.30071 288.153414 
L 57.686805 284.516343 
L 60.072901 280.543582 
L 63.652044 274.044975 
L 67.231187 266.990491 
L 70.810331 259.460812 
L 75.582522 248.795521 
L 80.354713 237.537635 
L 86.319952 222.813533 
L 93.478239 204.471174 
L 108.98786 163.790505 
L 117.339195 142.278867 
L 123.304434 127.446029 
L 129.269673 113.251422 
L 134.041864 102.463999 
L 138.814055 92.265876 
L 142.393198 85.047591 
L 145.972342 78.229692 
L 149.551485 71.838384 
L 153.130628 65.897703 
L 156.709772 60.429389 
L 160.288915 55.452777 
L 163.868058 50.984686 
L 166.254154 48.295607 
L 168.64025 45.842476 
L 171.026345 43.628321 
L 173.412441 41.655628 
L 175.798536 39.926343 
L 178.184632 38.441865 
L 180.570727 37.203046 
L 182.956823 36.210197 
L 185.342919 35.463082 
L 187.729014 34.960932 
L 190.11511 34.702445 
L 192.501205 34.685795 
L 194.887301 34.908643 
L 197.273397 35.368147 
L 199.659492 36.060974 
L 202.045588 36.983318 
L 204.431683 38.13091 
L 206.817779 39.499038 
L 209.203874 41.082566 
L 211.58997 42.875952 
L 213.976066 44.873269 
L 217.555209 48.237765 
L 221.134352 52.024237 
L 224.713496 56.208505 
L 228.292639 60.765037 
L 231.871782 65.667138 
L 235.450926 70.887158 
L 240.223117 78.292535 
L 244.995308 86.143738 
L 250.960547 96.478472 
L 256.925786 107.264766 
L 265.277121 122.869931 
L 289.138076 167.86977 
L 296.296363 180.759577 
L 302.261602 191.090528 
L 308.226841 200.979346 
L 314.19208 210.37425 
L 318.964271 217.507403 
L 323.736462 224.283681 
L 328.508653 230.692509 
L 333.280845 236.727545 
L 338.053036 242.386373 
L 342.825227 247.670178 
L 347.597418 252.58339 
L 352.369609 257.13332 
L 357.1418 261.329791 
L 361.913992 265.184765 
L 366.686183 268.711979 
L 371.458374 271.926596 
L 376.230565 274.844871 
L 381.002756 277.483835 
L 385.774947 279.861006 
L 390.547139 281.99413 
L 395.31933 283.900942 
L 400.091521 285.59896 
L 406.05676 287.453904 
L 412.021999 289.041536 
L 417.987238 290.392384 
L 423.952477 291.535017 
L 431.110763 292.668393 
L 438.26905 293.581302 
L 446.620385 294.416438 
L 456.164767 295.128666 
L 466.902197 295.694752 
L 480.025723 296.145446 
L 496.728392 296.471256 
L 519.3963 296.671204 
L 559.959925 296.765461 
L 643.47327 296.778816 
L 643.47327 296.778816 
" clip-path="url(#p7d65930084)" style="fill: none; stroke: #0b2a3d; stroke-width: 2; stroke-linecap: square"/>
   </g>
   <g id="line2d_23">
    <path d="M 48.142423 294.571737 
L 64.845092 263.872504 
L 74.389474 246.737669 
L 82.740809 232.162684 
L 89.899095 220.069646 
L 97.057382 208.416087 
L 103.022621 199.085636 
L 108.98786 190.137376 
L 114.953099 181.602416 
L 120.918338 173.509202 
L 125.690529 167.370006 
L 130.46272 161.541754 
L 135.234911 156.034973 
L 140.007103 150.858921 
L 144.779294 146.021569 
L 149.551485 141.529585 
L 154.323676 137.388329 
L 159.095867 133.601854 
L 163.868058 130.172911 
L 167.447202 127.836765 
L 171.026345 125.702731 
L 174.605489 123.770565 
L 178.184632 122.039635 
L 181.763775 120.508928 
L 185.342919 119.177064 
L 188.922062 118.0423 
L 192.501205 117.102543 
L 196.080349 116.355366 
L 199.659492 115.798014 
L 203.238635 115.427419 
L 206.817779 115.240218 
L 210.396922 115.232762 
L 213.976066 115.401133 
L 217.555209 115.74116 
L 222.3274 116.453895 
L 227.099591 117.452876 
L 231.871782 118.726411 
L 236.643974 120.262251 
L 241.416165 122.047653 
L 246.188356 124.069457 
L 250.960547 126.314149 
L 255.732738 128.76794 
L 261.697977 132.10788 
L 267.663216 135.725007 
L 273.628455 139.59153 
L 280.786742 144.5215 
L 287.945029 149.723154 
L 296.296363 156.07301 
L 305.840745 163.613214 
L 318.964271 174.294956 
L 351.176561 200.677877 
L 361.913992 209.149886 
L 371.458374 216.428027 
L 381.002756 223.421097 
L 389.354091 229.277332 
L 397.705425 234.868155 
L 406.05676 240.179089 
L 414.408094 245.200004 
L 422.759429 249.924781 
L 429.917716 253.736925 
L 437.076002 257.330005 
L 444.234289 260.705983 
L 451.392576 263.868235 
L 459.74391 267.293615 
L 468.095245 270.443539 
L 476.446579 273.328759 
L 484.797914 275.961309 
L 493.149248 278.354196 
L 501.500583 280.521112 
L 509.851918 282.476174 
L 519.3963 284.469476 
L 528.940682 286.226086 
L 538.485064 287.766979 
L 549.222495 289.267932 
L 559.959925 290.549253 
L 571.890403 291.746916 
L 585.013928 292.827447 
L 599.330502 293.768128 
L 614.840123 294.55767 
L 632.73584 295.234255 
L 643.47327 295.544592 
L 643.47327 295.544592 
" clip-path="url(#p7d65930084)" style="fill: none; stroke-dasharray: 6.66,2.88; stroke-dashoffset: 0; stroke: #f39200; stroke-width: 1.8"/>
   </g>
   <g id="patch_3">
    <path d="M 46.949375 296.778895 
L 46.949375 21.558281 
" style="fill: none; stroke: #d9e0e6; stroke-width: 0.8; stroke-linejoin: miter; stroke-linecap: square"/>
   </g>
   <g id="patch_4">
    <path d="M 46.949375 296.778895 
L 643.47327 296.778895 
" style="fill: none; stroke: #d9e0e6; stroke-width: 0.8; stroke-linejoin: miter; stroke-linecap: square"/>
   </g>
   <g id="text_16">
    <!-- Wind Speed Distribution — Site vs IEC IIA Design -->
    <g style="fill: #0b2a3d" transform="translate(193.722416 15.558281) scale(0.11 -0.11)">
     <defs>
      <path id="DejaVuSans-Bold-57" d="M 191 4666 
L 1344 4666 
L 2150 1275 
L 2950 4666 
L 4109 4666 
L 4909 1275 
L 5716 4666 
L 6859 4666 
L 5759 0 
L 4372 0 
L 3525 3547 
L 2688 0 
L 1300 0 
L 191 4666 
z
" transform="scale(0.015625)"/>
      <path id="DejaVuSans-Bold-69" d="M 538 3500 
L 1656 3500 
L 1656 0 
L 538 0 
L 538 3500 
z
M 538 4863 
L 1656 4863 
L 1656 3950 
L 538 3950 
L 538 4863 
z
" transform="scale(0.015625)"/>
      <path id="DejaVuSans-Bold-6e" d="M 4056 2131 
L 4056 0 
L 2931 0 
L 2931 347 
L 2931 1631 
Q 2931 2084 2911 2256 
Q 2891 2428 2841 2509 
Q 2775 2619 2662 2680 
Q 2550 2741 2406 2741 
Q 2056 2741 1856 2470 
Q 1656 2200 1656 1722 
L 1656 0 
L 538 0 
L 538 3500 
L 1656 3500 
L 1656 2988 
Q 1909 3294 2193 3439 
Q 2478 3584 2822 3584 
Q 3428 3584 3742 3212 
Q 4056 2841 4056 2131 
z
" transform="scale(0.015625)"/>
      <path id="DejaVuSans-Bold-64" d="M 2919 2988 
L 2919 4863 
L 4044 4863 
L 4044 0 
L 2919 0 
L 2919 506 
Q 2688 197 2409 53 
Q 2131 -91 1766 -91 
Q 1119 -91 703 423 
Q 288 938 288 1747 
Q 288 2556 703 3070 
Q 1119 3584 1766 3584 
Q 2128 3584 2408 3439 
Q 2688 3294 2919 2988 
z
M 2181 722 
Q 2541 722 2730 984 
Q 2919 1247 2919 1747 
Q 2919 2247 2730 2509 
Q 2541 2772 2181 2772 
Q 1825 2772 1636 2509 
Q 1447 2247 1447 1747 
Q 1447 1247 1636 984 
Q 1825 722 2181 722 
z
" transform="scale(0.015625)"/>
      <path id="DejaVuSans-Bold-20" transform="scale(0.015625)"/>
      <path id="DejaVuSans-Bold-53" d="M 3834 4519 
L 3834 3531 
Q 3450 3703 3084 3790 
Q 2719 3878 2394 3878 
Q 1963 3878 1756 3759 
Q 1550 3641 1550 3391 
Q 1550 3203 1689 3098 
Q 1828 2994 2194 2919 
L 2706 2816 
Q 3484 2659 3812 2340 
Q 4141 2022 4141 1434 
Q 4141 663 3683 286 
Q 3225 -91 2284 -91 
Q 1841 -91 1394 -6 
Q 947 78 500 244 
L 500 1259 
Q 947 1022 1364 901 
Q 1781 781 2169 781 
Q 2563 781 2772 912 
Q 2981 1044 2981 1288 
Q 2981 1506 2839 1625 
Q 2697 1744 2272 1838 
L 1806 1941 
Q 1106 2091 782 2419 
Q 459 2747 459 3303 
Q 459 4000 909 4375 
Q 1359 4750 2203 4750 
Q 2588 4750 2994 4692 
Q 3400 4634 3834 4519 
z
" transform="scale(0.015625)"/>
      <path id="DejaVuSans-Bold-70" d="M 1656 506 
L 1656 -1331 
L 538 -1331 
L 538 3500 
L 1656 3500 
L 1656 2988 
Q 1888 3294 2169 3439 
Q 2450 3584 2816 3584 
Q 3463 3584 3878 3070 
Q 4294 2556 4294 1747 
Q 4294 938 3878 423 
Q 3463 -91 2816 -91 
Q 2450 -91 2169 54 
Q 1888 200 1656 506 
z
M 2400 2772 
Q 2041 2772 1848 2508 
Q 1656 2244 1656 1747 
Q 1656 1250 1848 986 
Q 2041 722 2400 722 
Q 2759 722 2948 984 
Q 3138 1247 3138 1747 
Q 3138 2247 2948 2509 
Q 2759 2772 2400 2772 
z
" transform="scale(0.015625)"/>
      <path id="DejaVuSans-Bold-65" d="M 4031 1759 
L 4031 1441 
L 1416 1441 
Q 1456 1047 1700 850 
Q 1944 653 2381 653 
Q 2734 653 3104 758 
Q 3475 863 3866 1075 
L 3866 213 
Q 3469 63 3072 -14 
Q 2675 -91 2278 -91 
Q 1328 -91 801 392 
Q 275 875 275 1747 
Q 275 2603 792 3093 
Q 1309 3584 2216 3584 
Q 3041 3584 3536 3087 
Q 4031 2591 4031 1759 
z
M 2881 2131 
Q 2881 2450 2695 2645 
Q 2509 2841 2209 2841 
Q 1884 2841 1681 2658 
Q 1478 2475 1428 2131 
L 2881 2131 
z
" transform="scale(0.015625)"/>
      <path id="DejaVuSans-Bold-44" d="M 1791 3756 
L 1791 909 
L 2222 909 
Q 2959 909 3348 1275 
Q 3738 1641 3738 2338 
Q 3738 3031 3350 3393 
Q 2963 3756 2222 3756 
L 1791 3756 
z
M 588 4666 
L 1856 4666 
Q 2919 4666 3439 4514 
Q 3959 4363 4331 4000 
Q 4659 3684 4818 3271 
Q 4978 2859 4978 2338 
Q 4978 1809 4818 1395 
Q 4659 981 4331 666 
Q 3956 303 3431 151 
Q 2906 0 1856 0 
L 588 0 
L 588 4666 
z
" transform="scale(0.015625)"/>
      <path id="DejaVuSans-Bold-73" d="M 3272 3391 
L 3272 2541 
Q 2913 2691 2578 2766 
Q 2244 2841 1947 2841 
Q 1628 2841 1473 2761 
Q 1319 2681 1319 2516 
Q 1319 2381 1436 2309 
Q 1553 2238 1856 2203 
L 2053 2175 
Q 2913 2066 3209 1816 
Q 3506 1566 3506 1031 
Q 3506 472 3093 190 
Q 2681 -91 1863 -91 
Q 1516 -91 1145 -36 
Q 775 19 384 128 
L 384 978 
Q 719 816 1070 734 
Q 1422 653 1784 653 
Q 2113 653 2278 743 
Q 2444 834 2444 1013 
Q 2444 1163 2330 1236 
Q 2216 1309 1875 1350 
L 1678 1375 
Q 931 1469 631 1722 
Q 331 1975 331 2491 
Q 331 3047 712 3315 
Q 1094 3584 1881 3584 
Q 2191 3584 2531 3537 
Q 2872 3491 3272 3391 
z
" transform="scale(0.015625)"/>
      <path id="DejaVuSans-Bold-74" d="M 1759 4494 
L 1759 3500 
L 2913 3500 
L 2913 2700 
L 1759 2700 
L 1759 1216 
Q 1759 972 1856 886 
Q 1953 800 2241 800 
L 2816 800 
L 2816 0 
L 1856 0 
Q 1194 0 917 276 
Q 641 553 641 1216 
L 641 2700 
L 84 2700 
L 84 3500 
L 641 3500 
L 641 4494 
L 1759 4494 
z
" transform="scale(0.015625)"/>
      <path id="DejaVuSans-Bold-72" d="M 3138 2547 
Q 2991 2616 2845 2648 
Q 2700 2681 2553 2681 
Q 2122 2681 1889 2404 
Q 1656 2128 1656 1613 
L 1656 0 
L 538 0 
L 538 3500 
L 1656 3500 
L 1656 2925 
Q 1872 3269 2151 3426 
Q 2431 3584 2822 3584 
Q 2878 3584 2943 3579 
Q 3009 3575 3134 3559 
L 3138 2547 
z
" transform="scale(0.015625)"/>
      <path id="DejaVuSans-Bold-62" d="M 2400 722 
Q 2759 722 2948 984 
Q 3138 1247 3138 1747 
Q 3138 2247 2948 2509 
Q 2759 2772 2400 2772 
Q 2041 2772 1848 2508 
Q 1656 2244 1656 1747 
Q 1656 1250 1848 986 
Q 2041 722 2400 722 
z
M 1656 2988 
Q 1888 3294 2169 3439 
Q 2450 3584 2816 3584 
Q 3463 3584 3878 3070 
Q 4294 2556 4294 1747 
Q 4294 938 3878 423 
Q 3463 -91 2816 -91 
Q 2450 -91 2169 54 
Q 1888 200 1656 506 
L 1656 0 
L 538 0 
L 538 4863 
L 1656 4863 
L 1656 2988 
z
" transform="scale(0.015625)"/>
      <path id="DejaVuSans-Bold-75" d="M 500 1363 
L 500 3500 
L 1625 3500 
L 1625 3150 
Q 1625 2866 1622 2436 
Q 1619 2006 1619 1863 
Q 1619 1441 1641 1255 
Q 1663 1069 1716 984 
Q 1784 875 1895 815 
Q 2006 756 2150 756 
Q 2500 756 2700 1025 
Q 2900 1294 2900 1772 
L 2900 3500 
L 4019 3500 
L 4019 0 
L 2900 0 
L 2900 506 
Q 2647 200 2364 54 
Q 2081 -91 1741 -91 
Q 1134 -91 817 281 
Q 500 653 500 1363 
z
" transform="scale(0.015625)"/>
      <path id="DejaVuSans-Bold-6f" d="M 2203 2784 
Q 1831 2784 1636 2517 
Q 1441 2250 1441 1747 
Q 1441 1244 1636 976 
Q 1831 709 2203 709 
Q 2569 709 2762 976 
Q 2956 1244 2956 1747 
Q 2956 2250 2762 2517 
Q 2569 2784 2203 2784 
z
M 2203 3584 
Q 3106 3584 3614 3096 
Q 4122 2609 4122 1747 
Q 4122 884 3614 396 
Q 3106 -91 2203 -91 
Q 1297 -91 786 396 
Q 275 884 275 1747 
Q 275 2609 786 3096 
Q 1297 3584 2203 3584 
z
" transform="scale(0.015625)"/>
      <path id="DejaVuSans-Bold-2014" d="M 344 2156 
L 6056 2156 
L 6056 1350 
L 344 1350 
L 344 2156 
z
" transform="scale(0.015625)"/>
      <path id="DejaVuSans-Bold-76" d="M 97 3500 
L 1216 3500 
L 2088 1081 
L 2956 3500 
L 4078 3500 
L 2700 0 
L 1472 0 
L 97 3500 
z
" transform="scale(0.015625)"/>
      <path id="DejaVuSans-Bold-49" d="M 588 4666 
L 1791 4666 
L 1791 0 
L 588 0 
L 588 4666 
z
" transform="scale(0.015625)"/>
      <path id="DejaVuSans-Bold-45" d="M 588 4666 
L 3834 4666 
L 3834 3756 
L 1791 3756 
L 1791 2888 
L 3713 2888 
L 3713 1978 
L 1791 1978 
L 1791 909 
L 3903 909 
L 3903 0 
L 588 0 
L 588 4666 
z
" transform="scale(0.015625)"/>
      <path id="DejaVuSans-Bold-43" d="M 4288 256 
Q 3956 84 3597 -3 
Q 3238 -91 2847 -91 
Q 1681 -91 1000 561 
Q 319 1213 319 2328 
Q 319 3447 1000 4098 
Q 1681 4750 2847 4750 
Q 3238 4750 3597 4662 
Q 3956 4575 4288 4403 
L 4288 3438 
Q 3953 3666 3628 3772 
Q 3303 3878 2944 3878 
Q 2300 3878 1931 3465 
Q 1563 3053 1563 2328 
Q 1563 1606 1931 1193 
Q 2300 781 2944 781 
Q 3303 781 3628 887 
Q 3953 994 4288 1222 
L 4288 256 
z
" transform="scale(0.015625)"/>
      <path id="DejaVuSans-Bold-41" d="M 3419 850 
L 1538 850 
L 1241 0 
L 31 0 
L 1759 4666 
L 3194 4666 
L 4922 0 
L 3713 0 
L 3419 850 
z
M 1838 1716 
L 3116 1716 
L 2478 3572 
L 1838 1716 
z
" transform="scale(0.015625)"/>
      <path id="DejaVuSans-Bold-67" d="M 2919 594 
Q 2688 288 2409 144 
Q 2131 0 1766 0 
Q 1125 0 706 504 
Q 288 1009 288 1791 
Q 288 2575 706 3076 
Q 1125 3578 1766 3578 
Q 2131 3578 2409 3434 
Q 2688 3291 2919 2981 
L 2919 3500 
L 4044 3500 
L 4044 353 
Q 4044 -491 3511 -936 
Q 2978 -1381 1966 -1381 
Q 1638 -1381 1331 -1331 
Q 1025 -1281 716 -1178 
L 716 -306 
Q 1009 -475 1290 -558 
Q 1572 -641 1856 -641 
Q 2406 -641 2662 -400 
Q 2919 -159 2919 353 
L 2919 594 
z
M 2181 2772 
Q 1834 2772 1640 2515 
Q 1447 2259 1447 1791 
Q 1447 1309 1634 1061 
Q 1822 813 2181 813 
Q 2531 813 2725 1069 
Q 2919 1325 2919 1791 
Q 2919 2259 2725 2515 
Q 2531 2772 2181 2772 
z
" transform="scale(0.015625)"/>
     </defs>
     <use xlink:href="#DejaVuSans-Bold-57"/>
     <use xlink:href="#DejaVuSans-Bold-69" transform="translate(110.302734 0)"/>
     <use xlink:href="#DejaVuSans-Bold-6e" transform="translate(144.580078 0)"/>
     <use xlink:href="#DejaVuSans-Bold-64" transform="translate(215.771484 0)"/>
     <use xlink:href="#DejaVuSans-Bold-20" transform="translate(287.353516 0)"/>
     <use xlink:href="#DejaVuSans-Bold-53" transform="translate(322.167969 0)"/>
     <use xlink:href="#DejaVuSans-Bold-70" transform="translate(394.189453 0)"/>
     <use xlink:href="#DejaVuSans-Bold-65" transform="translate(465.771484 0)"/>
     <use xlink:href="#DejaVuSans-Bold-65" transform="translate(533.59375 0)"/>
     <use xlink:href="#DejaVuSans-Bold-64" transform="translate(601.416016 0)"/>
     <use xlink:href="#DejaVuSans-Bold-20" transform="translate(672.998047 0)"/>
     <use xlink:href="#DejaVuSans-Bold-44" transform="translate(707.8125 0)"/>
     <use xlink:href="#DejaVuSans-Bold-69" transform="translate(790.820312 0)"/>
     <use xlink:href="#DejaVuSans-Bold-73" transform="translate(825.097656 0)"/>
     <use xlink:href="#DejaVuSans-Bold-74" transform="translate(884.619141 0)"/>
     <use xlink:href="#DejaVuSans-Bold-72" transform="translate(932.421875 0)"/>
     <use xlink:href="#DejaVuSans-Bold-69" transform="translate(981.738281 0)"/>
     <use xlink:href="#DejaVuSans-Bold-62" transform="translate(1016.015625 0)"/>
     <use xlink:href="#DejaVuSans-Bold-75" transform="translate(1087.597656 0)"/>
     <use xlink:href="#DejaVuSans-Bold-74" transform="translate(1158.789062 0)"/>
     <use xlink:href="#DejaVuSans-Bold-69" transform="translate(1206.591797 0)"/>
     <use xlink:href="#DejaVuSans-Bold-6f" transform="translate(1240.869141 0)"/>
     <use xlink:href="#DejaVuSans-Bold-6e" transform="translate(1309.570312 0)"/>
     <use xlink:href="#DejaVuSans-Bold-20" transform="translate(1380.761719 0)"/>
     <use xlink:href="#DejaVuSans-Bold-2014" transform="translate(1415.576172 0)"/>
     <use xlink:href="#DejaVuSans-Bold-20" transform="translate(1515.576172 0)"/>
     <use xlink:href="#DejaVuSans-Bold-53" transform="translate(1550.390625 0)"/>
     <use xlink:href="#DejaVuSans-Bold-69" transform="translate(1622.412109 0)"/>
     <use xlink:href="#DejaVuSans-Bold-74" transform="translate(1656.689453 0)"/>
     <use xlink:href="#DejaVuSans-Bold-65" transform="translate(1704.492188 0)"/>
     <use xlink:href="#DejaVuSans-Bold-20" transform="translate(1772.314453 0)"/>
     <use xlink:href="#DejaVuSans-Bold-76" transform="translate(1807.128906 0)"/>
     <use xlink:href="#DejaVuSans-Bold-73" transform="translate(1872.314453 0)"/>
     <use xlink:href="#DejaVuSans-Bold-20" transform="translate(1931.835938 0)"/>
     <use xlink:href="#DejaVuSans-Bold-49" transform="translate(1966.650391 0)"/>
     <use xlink:href="#DejaVuSans-Bold-45" transform="translate(2003.857422 0)"/>
     <use xlink:href="#DejaVuSans-Bold-43" transform="translate(2072.167969 0)"/>
     <use xlink:href="#DejaVuSans-Bold-20" transform="translate(2145.556641 0)"/>
     <use xlink:href="#DejaVuSans-Bold-49" transform="translate(2180.371094 0)"/>
     <use xlink:href="#DejaVuSans-Bold-49" transform="translate(2217.578125 0)"/>
     <use xlink:href="#DejaVuSans-Bold-41" transform="translate(2254.785156 0)"/>
     <use xlink:href="#DejaVuSans-Bold-20" transform="translate(2332.177734 0)"/>
     <use xlink:href="#DejaVuSans-Bold-44" transform="translate(2366.992188 0)"/>
     <use xlink:href="#DejaVuSans-Bold-65" transform="translate(2450 0)"/>
     <use xlink:href="#DejaVuSans-Bold-73" transform="translate(2517.822266 0)"/>
     <use xlink:href="#DejaVuSans-Bold-69" transform="translate(2577.34375 0)"/>
     <use xlink:href="#DejaVuSans-Bold-67" transform="translate(2611.621094 0)"/>
     <use xlink:href="#DejaVuSans-Bold-6e" transform="translate(2683.203125 0)"/>
    </g>
   </g>
   <g id="legend_1">
    <g id="patch_5">
     <path d="M 461.72702 63.185781 
L 637.87327 63.185781 
Q 639.47327 63.185781 639.47327 61.585781 
L 639.47327 27.158281 
Q 639.47327 25.558281 637.87327 25.558281 
L 461.72702 25.558281 
Q 460.12702 25.558281 460.12702 27.158281 
L 460.12702 61.585781 
Q 460.12702 63.185781 461.72702 63.185781 
z
" style="fill: #ffffff; opacity: 0.9; stroke: #d9e0e6; stroke-linejoin: miter"/>
    </g>
    <g id="line2d_24">
     <path d="M 463.32702 32.037031 
L 467.32702 32.037031 
L 467.32702 32.037031 
L 475.32702 32.037031 
L 475.32702 32.037031 
L 479.32702 32.037031 
" style="fill: none; stroke: #d9e0e6; stroke-width: 0.8; stroke-linecap: square"/>
    </g>
    <g id="text_17">
     <!-- Site measurements -->
     <g style="fill: #1f2933" transform="translate(485.72702 34.837031) scale(0.08 -0.08)">
      <defs>
       <path id="DejaVuSans-53" d="M 3425 4513 
L 3425 3897 
Q 3066 4069 2747 4153 
Q 2428 4238 2131 4238 
Q 1616 4238 1336 4038 
Q 1056 3838 1056 3469 
Q 1056 3159 1242 3001 
Q 1428 2844 1947 2747 
L 2328 2669 
Q 3034 2534 3370 2195 
Q 3706 1856 3706 1288 
Q 3706 609 3251 259 
Q 2797 -91 1919 -91 
Q 1588 -91 1214 -16 
Q 841 59 441 206 
L 441 856 
Q 825 641 1194 531 
Q 1563 422 1919 422 
Q 2459 422 2753 634 
Q 3047 847 3047 1241 
Q 3047 1584 2836 1778 
Q 2625 1972 2144 2069 
L 1759 2144 
Q 1053 2284 737 2584 
Q 422 2884 422 3419 
Q 422 4038 858 4394 
Q 1294 4750 2059 4750 
Q 2388 4750 2728 4690 
Q 3069 4631 3425 4513 
z
" transform="scale(0.015625)"/>
      </defs>
      <use xlink:href="#DejaVuSans-53"/>
      <use xlink:href="#DejaVuSans-69" transform="translate(63.476562 0)"/>
      <use xlink:href="#DejaVuSans-74" transform="translate(91.259766 0)"/>
      <use xlink:href="#DejaVuSans-65" transform="translate(130.46875 0)"/>
      <use xlink:href="#DejaVuSans-20" transform="translate(191.992188 0)"/>
      <use xlink:href="#DejaVuSans-6d" transform="translate(223.779297 0)"/>
      <use xlink:href="#DejaVuSans-65" transform="translate(321.191406 0)"/>
      <use xlink:href="#DejaVuSans-61" transform="translate(382.714844 0)"/>
      <use xlink:href="#DejaVuSans-73" transform="translate(443.994141 0)"/>
      <use xlink:href="#DejaVuSans-75" transform="translate(496.09375 0)"/>
      <use xlink:href="#DejaVuSans-72" transform="translate(559.472656 0)"/>
      <use xlink:href="#DejaVuSans-65" transform="translate(598.335938 0)"/>
      <use xlink:href="#DejaVuSans-6d" transform="translate(659.859375 0)"/>
      <use xlink:href="#DejaVuSans-65" transform="translate(757.271484 0)"/>
      <use xlink:href="#DejaVuSans-6e" transform="translate(818.794922 0)"/>
      <use xlink:href="#DejaVuSans-74" transform="translate(882.173828 0)"/>
      <use xlink:href="#DejaVuSans-73" transform="translate(921.382812 0)"/>
     </g>
    </g>
    <g id="line2d_25">
     <path d="M 463.32702 43.779531 
L 471.32702 43.779531 
L 479.32702 43.779531 
" style="fill: none; stroke: #0b2a3d; stroke-width: 2; stroke-linecap: square"/>
    </g>
    <g id="text_18">
     <!-- Site Weibull fit  (k=2.40, A=7.58 m/s) -->
     <g style="fill: #1f2933" transform="translate(485.72702 46.579531) scale(0.08 -0.08)">
      <defs>
       <path id="DejaVuSans-66" d="M 2375 4863 
L 2375 4384 
L 1825 4384 
Q 1516 4384 1395 4259 
Q 1275 4134 1275 3809 
L 1275 3500 
L 2222 3500 
L 2222 3053 
L 1275 3053 
L 1275 0 
L 697 0 
L 697 3053 
L 147 3053 
L 147 3500 
L 697 3500 
L 697 3744 
Q 697 4328 969 4595 
Q 1241 4863 1831 4863 
L 2375 4863 
z
" transform="scale(0.015625)"/>
       <path id="DejaVuSans-6b" d="M 581 4863 
L 1159 4863 
L 1159 1991 
L 2875 3500 
L 3609 3500 
L 1753 1863 
L 3688 0 
L 2938 0 
L 1159 1709 
L 1159 0 
L 581 0 
L 581 4863 
z
" transform="scale(0.015625)"/>
       <path id="DejaVuSans-3d" d="M 678 2906 
L 4684 2906 
L 4684 2381 
L 678 2381 
L 678 2906 
z
M 678 1631 
L 4684 1631 
L 4684 1100 
L 678 1100 
L 678 1631 
z
" transform="scale(0.015625)"/>
       <path id="DejaVuSans-2c" d="M 750 794 
L 1409 794 
L 1409 256 
L 897 -744 
L 494 -744 
L 750 256 
L 750 794 
z
" transform="scale(0.015625)"/>
       <path id="DejaVuSans-41" d="M 2188 4044 
L 1331 1722 
L 3047 1722 
L 2188 4044 
z
M 1831 4666 
L 2547 4666 
L 4325 0 
L 3669 0 
L 3244 1197 
L 1141 1197 
L 716 0 
L 50 0 
L 1831 4666 
z
" transform="scale(0.015625)"/>
       <path id="DejaVuSans-37" d="M 525 4666 
L 3525 4666 
L 3525 4397 
L 1831 0 
L 1172 0 
L 2766 4134 
L 525 4134 
L 525 4666 
z
" transform="scale(0.015625)"/>
      </defs>
      <use xlink:href="#DejaVuSans-53"/>
      <use xlink:href="#DejaVuSans-69" transform="translate(63.476562 0)"/>
      <use xlink:href="#DejaVuSans-74" transform="translate(91.259766 0)"/>
      <use xlink:href="#DejaVuSans-65" transform="translate(130.46875 0)"/>
      <use xlink:href="#DejaVuSans-20" transform="translate(191.992188 0)"/>
      <use xlink:href="#DejaVuSans-57" transform="translate(223.779297 0)"/>
      <use xlink:href="#DejaVuSans-65" transform="translate(316.78125 0)"/>
      <use xlink:href="#DejaVuSans-69" transform="translate(378.304688 0)"/>
      <use xlink:href="#DejaVuSans-62" transform="translate(406.087891 0)"/>
      <use xlink:href="#DejaVuSans-75" transform="translate(469.564453 0)"/>
      <use xlink:href="#DejaVuSans-6c" transform="translate(532.943359 0)"/>
      <use xlink:href="#DejaVuSans-6c" transform="translate(560.726562 0)"/>
      <use xlink:href="#DejaVuSans-20" transform="translate(588.509766 0)"/>
      <use xlink:href="#DejaVuSans-66" transform="translate(620.296875 0)"/>
      <use xlink:href="#DejaVuSans-69" transform="translate(655.501953 0)"/>
      <use xlink:href="#DejaVuSans-74" transform="translate(683.285156 0)"/>
      <use xlink:href="#DejaVuSans-20" transform="translate(722.494141 0)"/>
      <use xlink:href="#DejaVuSans-20" transform="translate(754.28125 0)"/>
      <use xlink:href="#DejaVuSans-28" transform="translate(786.068359 0)"/>
      <use xlink:href="#DejaVuSans-6b" transform="translate(825.082031 0)"/>
      <use xlink:href="#DejaVuSans-3d" transform="translate(882.992188 0)"/>
      <use xlink:href="#DejaVuSans-32" transform="translate(966.78125 0)"/>
      <use xlink:href="#DejaVuSans-2e" transform="translate(1030.404297 0)"/>
      <use xlink:href="#DejaVuSans-34" transform="translate(1062.191406 0)"/>
      <use xlink:href="#DejaVuSans-30" transform="translate(1125.814453 0)"/>
      <use xlink:href="#DejaVuSans-2c" transform="translate(1189.4375 0)"/>
      <use xlink:href="#DejaVuSans-20" transform="translate(1221.224609 0)"/>
      <use xlink:href="#DejaVuSans-41" transform="translate(1253.011719 0)"/>
      <use xlink:href="#DejaVuSans-3d" transform="translate(1321.419922 0)"/>
      <use xlink:href="#DejaVuSans-37" transform="translate(1405.208984 0)"/>
      <use xlink:href="#DejaVuSans-2e" transform="translate(1468.832031 0)"/>
      <use xlink:href="#DejaVuSans-35" transform="translate(1500.619141 0)"/>
      <use xlink:href="#DejaVuSans-38" transform="translate(1564.242188 0)"/>
      <use xlink:href="#DejaVuSans-20" transform="translate(1627.865234 0)"/>
      <use xlink:href="#DejaVuSans-6d" transform="translate(1659.652344 0)"/>
      <use xlink:href="#DejaVuSans-2f" transform="translate(1757.064453 0)"/>
      <use xlink:href="#DejaVuSans-73" transform="translate(1790.755859 0)"/>
      <use xlink:href="#DejaVuSans-29" transform="translate(1842.855469 0)"/>
     </g>
    </g>
    <g id="line2d_26">
     <path d="M 463.32702 55.522031 
L 471.32702 55.522031 
L 479.32702 55.522031 
" style="fill: none; stroke-dasharray: 6.66,2.88; stroke-dashoffset: 0; stroke: #f39200; stroke-width: 1.8"/>
    </g>
    <g id="text_19">
     <!-- IEC IIA design  (k=2.0, A=9.59 m/s) -->
     <g style="fill: #1f2933" transform="translate(485.72702 58.322031) scale(0.08 -0.08)">
      <defs>
       <path id="DejaVuSans-49" d="M 628 4666 
L 1259 4666 
L 1259 0 
L 628 0 
L 628 4666 
z
" transform="scale(0.015625)"/>
       <path id="DejaVuSans-45" d="M 628 4666 
L 3578 4666 
L 3578 4134 
L 1259 4134 
L 1259 2753 
L 3481 2753 
L 3481 2222 
L 1259 2222 
L 1259 531 
L 3634 531 
L 3634 0 
L 628 0 
L 628 4666 
z
" transform="scale(0.015625)"/>
       <path id="DejaVuSans-43" d="M 4122 4306 
L 4122 3641 
Q 3803 3938 3442 4084 
Q 3081 4231 2675 4231 
Q 1875 4231 1450 3742 
Q 1025 3253 1025 2328 
Q 1025 1406 1450 917 
Q 1875 428 2675 428 
Q 3081 428 3442 575 
Q 3803 722 4122 1019 
L 4122 359 
Q 3791 134 3420 21 
Q 3050 -91 2638 -91 
Q 1578 -91 968 557 
Q 359 1206 359 2328 
Q 359 3453 968 4101 
Q 1578 4750 2638 4750 
Q 3056 4750 3426 4639 
Q 3797 4528 4122 4306 
z
" transform="scale(0.015625)"/>
       <path id="DejaVuSans-67" d="M 2906 1791 
Q 2906 2416 2648 2759 
Q 2391 3103 1925 3103 
Q 1463 3103 1205 2759 
Q 947 2416 947 1791 
Q 947 1169 1205 825 
Q 1463 481 1925 481 
Q 2391 481 2648 825 
Q 2906 1169 2906 1791 
z
M 3481 434 
Q 3481 -459 3084 -895 
Q 2688 -1331 1869 -1331 
Q 1566 -1331 1297 -1286 
Q 1028 -1241 775 -1147 
L 775 -588 
Q 1028 -725 1275 -790 
Q 1522 -856 1778 -856 
Q 2344 -856 2625 -561 
Q 2906 -266 2906 331 
L 2906 616 
Q 2728 306 2450 153 
Q 2172 0 1784 0 
Q 1141 0 747 490 
Q 353 981 353 1791 
Q 353 2603 747 3093 
Q 1141 3584 1784 3584 
Q 2172 3584 2450 3431 
Q 2728 3278 2906 2969 
L 2906 3500 
L 3481 3500 
L 3481 434 
z
" transform="scale(0.015625)"/>
       <path id="DejaVuSans-39" d="M 703 97 
L 703 672 
Q 941 559 1184 500 
Q 1428 441 1663 441 
Q 2288 441 2617 861 
Q 2947 1281 2994 2138 
Q 2813 1869 2534 1725 
Q 2256 1581 1919 1581 
Q 1219 1581 811 2004 
Q 403 2428 403 3163 
Q 403 3881 828 4315 
Q 1253 4750 1959 4750 
Q 2769 4750 3195 4129 
Q 3622 3509 3622 2328 
Q 3622 1225 3098 567 
Q 2575 -91 1691 -91 
Q 1453 -91 1209 -44 
Q 966 3 703 97 
z
M 1959 2075 
Q 2384 2075 2632 2365 
Q 2881 2656 2881 3163 
Q 2881 3666 2632 3958 
Q 2384 4250 1959 4250 
Q 1534 4250 1286 3958 
Q 1038 3666 1038 3163 
Q 1038 2656 1286 2365 
Q 1534 2075 1959 2075 
z
" transform="scale(0.015625)"/>
      </defs>
      <use xlink:href="#DejaVuSans-49"/>
      <use xlink:href="#DejaVuSans-45" transform="translate(29.492188 0)"/>
      <use xlink:href="#DejaVuSans-43" transform="translate(92.675781 0)"/>
      <use xlink:href="#DejaVuSans-20" transform="translate(162.5 0)"/>
      <use xlink:href="#DejaVuSans-49" transform="translate(194.287109 0)"/>
      <use xlink:href="#DejaVuSans-49" transform="translate(223.779297 0)"/>
      <use xlink:href="#DejaVuSans-41" transform="translate(253.271484 0)"/>
      <use xlink:href="#DejaVuSans-20" transform="translate(321.679688 0)"/>
      <use xlink:href="#DejaVuSans-64" transform="translate(353.466797 0)"/>
      <use xlink:href="#DejaVuSans-65" transform="translate(416.943359 0)"/>
      <use xlink:href="#DejaVuSans-73" transform="translate(478.466797 0)"/>
      <use xlink:href="#DejaVuSans-69" transform="translate(530.566406 0)"/>
      <use xlink:href="#DejaVuSans-67" transform="translate(558.349609 0)"/>
      <use xlink:href="#DejaVuSans-6e" transform="translate(621.826172 0)"/>
      <use xlink:href="#DejaVuSans-20" transform="translate(685.205078 0)"/>
      <use xlink:href="#DejaVuSans-20" transform="translate(716.992188 0)"/>
      <use xlink:href="#DejaVuSans-28" transform="translate(748.779297 0)"/>
      <use xlink:href="#DejaVuSans-6b" transform="translate(787.792969 0)"/>
      <use xlink:href="#DejaVuSans-3d" transform="translate(845.703125 0)"/>
      <use xlink:href="#DejaVuSans-32" transform="translate(929.492188 0)"/>
      <use xlink:href="#DejaVuSans-2e" transform="translate(993.115234 0)"/>
      <use xlink:href="#DejaVuSans-30" transform="translate(1024.902344 0)"/>
      <use xlink:href="#DejaVuSans-2c" transform="translate(1088.525391 0)"/>
      <use xlink:href="#DejaVuSans-20" transform="translate(1120.3125 0)"/>
      <use xlink:href="#DejaVuSans-41" transform="translate(1152.099609 0)"/>
      <use xlink:href="#DejaVuSans-3d" transform="translate(1220.507812 0)"/>
      <use xlink:href="#DejaVuSans-39" transform="translate(1304.296875 0)"/>
      <use xlink:href="#DejaVuSans-2e" transform="translate(1367.919922 0)"/>
      <use xlink:href="#DejaVuSans-35" transform="translate(1399.707031 0)"/>
      <use xlink:href="#DejaVuSans-39" transform="translate(1463.330078 0)"/>
      <use xlink:href="#DejaVuSans-20" transform="translate(1526.953125 0)"/>
      <use xlink:href="#DejaVuSans-6d" transform="translate(1558.740234 0)"/>
      <use xlink:href="#DejaVuSans-2f" transform="translate(1656.152344 0)"/>
      <use xlink:href="#DejaVuSans-73" transform="translate(1689.84375 0)"/>
      <use xlink:href="#DejaVuSans-29" transform="translate(1741.943359 0)"/>
     </g>
    </g>
   </g>
  </g>
 </g>
 <defs>
  <clipPath id="p7d65930084">
   <rect x="46.949375" y="21.558281" width="596.523895" height="275.220614"/>
  </clipPath>
 </defs>
</svg>
